<svg xmlns="http://www.w3.org/2000/svg" enable-background="new 0 0 64 64" viewBox="0 0 64 64"><path fill="#2c3a45" d="M62,54.1L43,37.9c6.8-9.3,6-22.5-2.4-30.9C31.3-2.3,16.3-2.3,7,7c-9.3,9.3-9.3,24.4,0,33.7c8.4,8.4,21.6,9.2,30.9,2.4c0,0,0,0,0,0l16.2,19c1.1,1.2,2.6,2,4.3,2c1.5,0,2.9-0.6,4-1.6c1.1-1.1,1.7-2.6,1.7-4.2C63.9,56.6,63.2,55.1,62,54.1z M36.6,36.6c-7,7-18.5,7-25.5,0C4,29.5,4,18.1,11,11.1c7-7,18.5-7,25.5,0C43.6,18.1,43.6,29.5,36.6,36.6z"/><path fill="#0171b9" d="M23.8,22.2c-0.9,0-1.6,0.7-1.6,1.6c0,0.9,0.7,1.6,1.6,1.6s1.6-0.7,1.6-1.6C25.4,22.9,24.7,22.2,23.8,22.2z"/><path fill="#0171b9" d="M36.2,16.7c-0.8-1.4-2.6-2.2-5-2.2c-0.6,0-1.3,0.1-2.1,0.2c-1.3-3.2-3.2-5.1-5.3-5.1c-2.1,0-4,1.9-5.3,5.1l-0.1,0c-0.2,0-0.4-0.1-0.6-0.1c-0.5-0.1-1-0.1-1.5-0.1c-2.4,0-4.1,0.8-5,2.2c-1,1.7-0.5,4.1,1.4,6.6c0.1,0.2,0.3,0.3,0.4,0.5l0,0l0,0c-0.1,0.2-0.3,0.3-0.4,0.5c-1.9,2.6-2.4,4.9-1.4,6.6c0.8,1.4,2.5,2.2,5,2.2c0.5,0,1,0,1.5-0.1c0.2,0,0.4-0.1,0.6-0.1l0.1,0c1.3,3.3,3.2,5.1,5.3,5.1c2.1,0,4-1.9,5.3-5.1c0.8,0.1,1.5,0.2,2.1,0.2c2.4,0,4.2-0.8,5-2.2c1.1-1.8,0.4-4.4-1.8-7.1C36.6,21.1,37.2,18.5,36.2,16.7z M17.6,30.9c-0.4,0-0.8,0.1-1.2,0.1c-1.5,0-2.7-0.4-3.1-1.1c-0.5-0.9,0-2.5,1.3-4.2l0.1-0.2c0.8,0.8,1.6,1.5,2.5,2.1c0.1,1.2,0.3,2.3,0.6,3.3L17.6,30.9z M17,24.6c-0.3-0.3-0.6-0.5-0.8-0.8c0.3-0.3,0.5-0.5,0.8-0.8c0,0.3,0,0.5,0,0.8C17,24.1,17,24.3,17,24.6z M17.2,20c-0.9,0.7-1.8,1.4-2.5,2.2L14.6,22c-1.3-1.8-1.8-3.3-1.3-4.2c0.4-0.7,1.5-1.1,3.1-1.1c0.4,0,0.8,0,1.2,0.1l0.2,0C17.6,17.8,17.4,18.9,17.2,20z M27.9,18.3c-0.2-0.1-0.4-0.3-0.7-0.4c-0.2-0.1-0.4-0.2-0.7-0.4c0.4-0.1,0.7-0.2,1.1-0.3C27.7,17.6,27.8,17.9,27.9,18.3z M23.8,11.7c1.1,0,2.2,1.3,3.1,3.4c-1,0.3-2.1,0.7-3.1,1.1c-1.1-0.4-2.1-0.8-3.2-1.1C21.6,13,22.7,11.7,23.8,11.7z M20,17.2c0.4,0.1,0.7,0.2,1.1,0.3c-0.2,0.1-0.4,0.2-0.7,0.4c-0.2,0.1-0.4,0.3-0.7,0.4C19.8,17.9,19.9,17.6,20,17.2z M19.7,29.3c0.2,0.1,0.4,0.3,0.7,0.4c0.2,0.1,0.4,0.2,0.7,0.4l0,0c-0.4,0.1-0.7,0.2-1.1,0.3C19.9,30.1,19.8,29.7,19.7,29.3z M23.8,35.9c-1.1,0-2.2-1.3-3.1-3.4c1-0.3,2.1-0.6,3.1-1.1c1.1,0.5,2.1,0.8,3.1,1.1C26,34.6,24.9,35.9,23.8,35.9z M27.6,30.4c-0.4-0.1-0.7-0.2-1.1-0.3c0.2-0.1,0.5-0.2,0.7-0.4c0.2-0.1,0.4-0.3,0.7-0.4C27.8,29.7,27.7,30.1,27.6,30.4z M28.3,26.4c-0.7,0.5-1.5,1-2.2,1.4c-0.8,0.4-1.5,0.8-2.3,1.2c-0.8-0.4-1.6-0.8-2.3-1.2c-0.8-0.4-1.5-0.9-2.2-1.4c-0.1-0.9-0.1-1.8-0.1-2.6c0-0.9,0-1.8,0.1-2.6c0.7-0.5,1.5-1,2.2-1.4c0.7-0.4,1.5-0.8,2.3-1.2c0.8,0.4,1.6,0.8,2.3,1.2c0.8,0.4,1.5,0.9,2.2,1.4c0.1,0.9,0.1,1.8,0.1,2.6S28.4,25.6,28.3,26.4z M34.3,29.9c-0.4,0.7-1.5,1.1-3,1.1c-0.5,0-0.9,0-1.4-0.1c0.3-1,0.5-2.1,0.6-3.2c0.9-0.7,1.8-1.4,2.5-2.2C34.3,27.3,34.8,28.9,34.3,29.9z M30.6,23c0.3,0.3,0.6,0.5,0.8,0.8c-0.3,0.3-0.5,0.5-0.8,0.8c0-0.3,0-0.5,0-0.8C30.6,23.5,30.6,23.3,30.6,23z M32.9,22.2c-0.8-0.7-1.6-1.5-2.5-2.1c-0.1-1.2-0.3-2.3-0.6-3.3c0.6-0.1,1-0.1,1.4-0.1c1.5,0,2.6,0.4,3,1.1C34.8,18.7,34.3,20.3,32.9,22.2z"/></svg>