<svg xmlns="http://www.w3.org/2000/svg" width="64" height="64" enable-background="new 0 0 64 64" viewBox="0 0 64 64"><rect width="64" height="3.881" y="17.543" fill="#919293"/><path fill="#30435A" d="M3.406,54.137h57.197V23.488H3.406V54.137z M24.557,48.355l3.148-7.648h-1.941
		c-0.351,0-0.671-0.176-0.867-0.465c-0.186-0.299-0.217-0.67-0.072-0.98l4.738-10.787c0.166-0.371,0.537-0.619,0.95-0.619h6.39
		c0.351,0,0.671,0.176,0.867,0.475c0.186,0.289,0.217,0.66,0.072,0.98l-2.137,4.801h2.797c0.413,0,0.785,0.248,0.939,0.619
		c0.165,0.381,0.093,0.826-0.196,1.125L26.25,49.461c-0.196,0.217-0.464,0.32-0.743,0.32c-0.196,0-0.392-0.053-0.568-0.166
		C24.526,49.348,24.361,48.82,24.557,48.355z"/><path fill="#E6A55F" d="M30.111,39.096c0.186,0.289,0.227,0.65,0.093,0.971l-1.641,3.996l7.525-7.887h-1.972
		c-0.351,0-0.671-0.176-0.867-0.475c-0.186-0.289-0.217-0.662-0.072-0.98l2.137-4.801h-4.129l-3.84,8.723h1.91
		C29.595,38.643,29.915,38.807,30.111,39.096z"/><rect width="11.035" height="2.621" x="5.522" y="13.166" fill="#919293"/><path fill="#919293" d="M14.172,11.07c0-0.666-0.542-1.207-1.208-1.207h-3.85c-0.666,0-1.208,0.541-1.208,1.207v0.65h6.265V11.07z"/><rect width="11.024" height="2.621" x="47.453" y="13.166" fill="#919293"/><path fill="#919293" d="M56.093,11.07c0-0.666-0.542-1.207-1.208-1.207h-3.84c-0.671,0-1.218,0.541-1.218,1.207v0.65h6.266V11.07z"/></svg>