<svg xmlns="http://www.w3.org/2000/svg" viewBox="0 0 64 64"><path fill="#222" d="M28.19,53.89A18.09,18.09,0,0,1,15.4,23a18.19,18.19,0,0,1,18.88-4.25,1.5,1.5,0,1,1-1,2.83,15.18,15.18,0,0,0-15.75,3.54,15.09,15.09,0,1,0,21.34,0A1.5,1.5,0,0,1,41,23,18.08,18.08,0,0,1,28.19,53.89Z"/><path fill="#222" d="M39.92,25.58a1.51,1.51,0,0,1-1.06-.44,1.49,1.49,0,0,1,0-2.12L51.05,10.83A1.5,1.5,0,0,1,53.17,13L41,25.14A1.51,1.51,0,0,1,39.92,25.58Z"/><path fill="#222" d="M52.39,24.5A1.5,1.5,0,0,1,50.89,23l-.28-11.11a1.5,1.5,0,0,1,1.46-1.54,1.46,1.46,0,0,1,1.54,1.46L53.89,23a1.5,1.5,0,0,1-1.46,1.54Z"/><path fill="#222" d="M52.11,13.39h0L41,13.1a1.5,1.5,0,1,1,.08-3l11.11.28a1.5,1.5,0,0,1,0,3Z"/></svg>