<svg xmlns="http://www.w3.org/2000/svg" enable-background="new 0 0 64 64" viewBox="0 0 64 64"><circle cx="32" cy="32" r="32" fill="#233551"/><path fill="#edb623" d="M13.83,36.48v1.24c0,0.41,0.31,0.74,0.69,0.74h3.7c0.39,0,0.71-0.33,0.71-0.74v-1.2h-4.68C14.11,36.52,13.97,36.5,13.83,36.48z"/><path fill="#fff" d="M37.42,35.85l1.01-1.39c0.21-0.29,0.51-0.51,0.85-0.65l0.05-0.02l5.96-1.17l1.13-2.54c0.01-0.01,0.01-0.03,0.02-0.04v-1.91c0-0.73-0.28-1.41-0.77-1.91l-0.75-0.74c-0.05-0.05-0.1-0.11-0.15-0.17l2.6-0.91c0.07-0.02,0.13-0.05,0.18-0.09c0.21-0.14,0.34-0.39,0.36-0.72c0.07-0.55-0.24-1.04-0.75-1.18c-0.39-0.1-0.9-0.16-1.42-0.06c-1.18,0.25-1.02,1.78-1.02,1.78l-0.52,0.19l-3.79-8.06c-0.21-0.44-0.64-0.72-1.11-0.72H19.76c-0.47,0-0.9,0.28-1.11,0.72l-3.79,8.07l-0.53-0.19c0,0,0.16-1.53-1.02-1.78c-0.52-0.11-1.02-0.04-1.42,0.06c-0.51,0.14-0.81,0.63-0.75,1.18c0.02,0.34,0.16,0.58,0.37,0.72c0.05,0.04,0.11,0.07,0.17,0.09l2.6,0.91c-0.05,0.06-0.09,0.12-0.15,0.17l-0.74,0.74c-0.49,0.49-0.78,1.18-0.78,1.91v6.01c0,0.93,0.73,1.69,1.61,1.69H37.42z M36.18,32.37H22.89l-1.45-3.1l1.11-1.89h13.97l1.11,1.89L36.18,32.37z M44.49,28.51c0,0,0.42,2.49-0.33,3.38c-0.49,0.59-5.26,0.69-5.26,0.69C38.02,29.77,44.49,28.51,44.49,28.51z M20.24,17.45h18.58l3.21,6.77c-8.34,0.77-16.67,0.77-25.01,0L20.24,17.45z M14.59,28.51c0,0,6.46,1.26,5.58,4.07c0,0-4.76-0.09-5.25-0.69C14.17,31,14.59,28.51,14.59,28.51z"/><path fill="#edb623" d="M34.65 28.25c-.22 0-.4.18-.4.4v2.47c0 .22.18.4.4.4.22 0 .4-.18.4-.4v-2.47C35.04 28.43 34.87 28.25 34.65 28.25zM32.94 28.25c-.22 0-.4.18-.4.4v2.47c0 .22.18.4.4.4s.4-.18.4-.4v-2.47C33.34 28.43 33.16 28.25 32.94 28.25zM31.24 28.25c-.22 0-.4.18-.4.4v2.47c0 .22.18.4.4.4.22 0 .4-.18.4-.4v-2.47C31.64 28.43 31.46 28.25 31.24 28.25zM29.54 28.25c-.22 0-.4.18-.4.4v2.47c0 .22.18.4.4.4.22 0 .4-.18.4-.4v-2.47C29.94 28.43 29.76 28.25 29.54 28.25zM27.83 28.25c-.22 0-.4.18-.4.4v2.47c0 .22.18.4.4.4.22 0 .4-.18.4-.4v-2.47C28.23 28.43 28.05 28.25 27.83 28.25zM26.13 28.25c-.22 0-.4.18-.4.4v2.47c0 .22.18.4.4.4s.4-.18.4-.4v-2.47C26.53 28.43 26.35 28.25 26.13 28.25zM24.43 28.25c-.22 0-.4.18-.4.4v2.47c0 .22.18.4.4.4.22 0 .4-.18.4-.4v-2.47C24.83 28.43 24.65 28.25 24.43 28.25zM51.97 41.8l-3.65-1.88-.76-2.99-.21-2.74 1.23-2.77 3.16-1.66c.45-.24.63-.8.39-1.25-.24-.45-.8-.63-1.25-.39l-3.45 1.81c-.18.1-.33.25-.42.44l-1.27 2.85-6.24 1.22c-.21.08-.4.22-.55.42l-3.1 4.24-4.9 1.24c-.66.17-1.06.84-.89 1.5.14.56.64.93 1.2.93.1 0 .2-.01.3-.04l5.33-1.35c.28-.07.52-.24.69-.47l1.93-2.54.89 3.84-2.62 4.35c-.35.59-.16 1.34.42 1.7.2.12.42.18.64.18.42 0 .83-.21 1.06-.6l2.89-4.81c.18-.29.22-.65.13-.98l-.9-3.1 3.93-.74.65 2.57c.07.26.24.47.47.6l4.02 2.07c.14.07.28.1.42.1.34 0 .66-.18.83-.5C52.61 42.59 52.43 42.03 51.97 41.8z"/><path fill="#edb623" d="M50.47,33.06c-1.32,0-2.39,1.07-2.39,2.39c0,1.32,1.07,2.39,2.39,2.39c1.32,0,2.39-1.07,2.39-2.39C52.85,34.13,51.79,33.06,50.47,33.06z"/></svg>