<svg xmlns="http://www.w3.org/2000/svg" width="32" height="32" viewBox="0 0 32 32"><g transform="translate(-61.432 -240.908)"><circle cx="77.432" cy="256.908" r="16" fill="#3a6c87"/><path fill="#fff" d="m 26.643555,962.3622 c -0.524835,0 -0.898438,0.37436 -0.898438,0.82422 l 0,78.35158 c 0,0.4498 0.373603,0.8242 0.898438,0.8242 l 46.785156,0 c 0.449862,0 0.826172,-0.3744 0.826172,-0.8242 l 0,-78.35158 c 0,-0.44986 -0.37631,-0.82422 -0.826172,-0.82422 l -46.785156,0 z m 17.769531,3.67383 11.248047,0 c 0.224931,0 0.449218,0.14901 0.449218,0.375 l 0,1.57422 c 0,0.22316 -0.224287,0.44922 -0.449218,0.44922 l -11.248047,0 c -0.299909,0 -0.449219,-0.22252 -0.449219,-0.44922 l 0,-1.57422 c 0,-0.22316 0.14931,-0.375 0.449219,-0.375 z m -13.720703,5.92383 38.613281,0 0,55.93164 -38.613281,0 0,-55.93164 z m 19.30664,10.94922 c -0.974701,0 -2.549494,3.9734 -3.449218,4.27343 -0.974602,0.22316 -4.27291,-2.47383 -5.097657,-1.94922 -0.899724,0.44986 -0.225597,4.64891 -0.90039,5.39844 -0.674793,0.67479 -4.873599,-7.7e-4 -5.398438,0.82422 -0.449862,0.89972 2.249127,4.19794 1.949219,5.09766 -0.224931,0.97482 -4.197266,2.47429 -4.197266,3.44919 0,0.9744 3.972335,2.5494 4.197266,3.4492 0.299909,0.9748 -2.399082,4.2731 -1.949219,5.0977 0.524839,0.8997 4.723644,0.2238 5.398438,0.9004 0.674792,0.6748 6.67e-4,4.8738 0.90039,5.3984 0.824747,0.4498 4.123055,-2.1742 5.097657,-1.9492 0.899724,0.2267 2.474517,4.1992 3.449218,4.1992 0.974701,0 2.474518,-3.9743 3.449219,-4.1992 0.899724,-0.2232 4.197932,2.399 5.097656,1.9492 0.824748,-0.5246 0.151378,-4.7236 0.826172,-5.3984 0.74967,-0.6748 4.948577,-7e-4 5.398438,-0.9004 0.524837,-0.8246 -2.17415,-4.1229 -1.949219,-5.0977 0.29992,-0.8998 4.273438,-2.4748 4.273437,-3.4492 0,-0.9749 -3.973527,-2.47437 -4.273437,-3.44919 -0.224931,-0.89972 2.474056,-4.19794 1.949219,-5.09766 -0.449861,-0.82499 -4.648768,-0.14801 -5.398438,-0.82422 -0.674793,-0.74953 -0.0014,-4.94858 -0.826172,-5.39844 -0.899724,-0.52461 -4.197932,2.17415 -5.097656,1.94922 -0.974701,-0.30109 -2.474518,-4.27343 -3.449219,-4.27343 z m 0,4.87304 c 6.747932,0 12.220703,5.4727 12.220703,12.22068 0,6.8226 -5.472771,12.2969 -12.220703,12.2969 -6.822808,0 -12.294921,-5.4743 -12.294921,-12.2969 0,-6.74798 5.472113,-12.22068 12.294921,-12.22068 z m 0,3.07422 c -5.098337,0 -9.220703,4.12285 -9.220703,9.14646 0,5.0983 4.122366,9.2227 9.220703,9.2227 5.02346,0 9.148438,-4.1244 9.148438,-9.2227 0,-5.02361 -4.124978,-9.14646 -9.148438,-9.14646 z m -4.798828,6.07227 c 0.899625,0 1.425781,0.60032 1.425781,1.5 l 0,0.22656 -0.90039,0 0,-0.22656 c 0,-0.4498 -0.225482,-0.59961 -0.525391,-0.59961 -0.299909,0 -0.449219,0.14841 -0.449219,0.59961 0,1.1994 1.875,1.4237 1.875,3.14839 0,0.9744 -0.526156,1.5762 -1.425781,1.5762 -0.899724,0 -1.423828,-0.6018 -1.423828,-1.5762 l 0,-0.375 0.900391,0 0,0.4512 c 0,0.4499 0.223529,0.5996 0.523437,0.5996 0.29991,0 0.451172,-0.1483 0.451172,-0.5996 0,-1.1994 -1.875,-1.5002 -1.875,-3.22459 0,-0.89968 0.524104,-1.5 1.423828,-1.5 z m 2.699219,0.0742 1.349609,0 0.97461,6.07419 -0.97461,0 -0.148437,-1.125 -1.201172,0 -0.148438,1.125 -0.826171,0 0.974609,-6.07419 z m 2.775391,0 0.898437,0 0,5.17389 1.576172,0 0,0.9003 -2.474609,0 0,-6.07419 z m 2.923828,0 2.548828,0 0,0.90039 -1.648438,0 0,1.65039 1.347657,0 0,0.89841 -1.347657,0 0,1.7247 1.648438,0 0,0.9003 -2.548828,0 0,-6.07419 z m -5.09961,1.05078 -0.449218,3.07421 0.90039,0 -0.451172,-3.07421 z m 1.53711,32.91211 c 2.24931,0 4.048828,1.7995 4.048828,4.0488 0,2.249 -1.799518,4.0489 -4.048828,4.0489 -2.249311,0 -4.046875,-1.7999 -4.046875,-4.0489 0,-2.2493 1.797564,-4.0488 4.046875,-4.0488 z" transform="translate(65.73 22.291) scale(.23406)"/></g></svg>