<svg id="Capa_1" enable-background="new 0 0 512 512" height="512" viewBox="0 0 512 512" width="512" xmlns="http://www.w3.org/2000/svg"><g><path d="m256 502.291h-237.29c-10.333 0-18.71-8.377-18.71-18.71v-118.003h256z" fill="#95d6a4"/><path d="m233.387 365.578h22.613v136.713h-22.613z" fill="#78c2a4"/><g><path d="m119.869 467.633c-1.934 0-3.868-.721-5.366-2.168l-16.831-16.251c-3.07-2.964-3.156-7.855-.192-10.925 2.964-3.069 7.855-3.156 10.925-.192l11.37 10.977 25.972-25.973c3.018-3.016 7.909-3.016 10.928 0 3.017 3.018 3.017 7.909 0 10.928l-31.341 31.341c-1.509 1.508-3.486 2.263-5.465 2.263z" fill="#78c2a4"/></g><path d="m493.29 502.291h-237.29v-136.713h256v118.003c0 10.333-8.377 18.71-18.71 18.71z" fill="#dd636e"/><path d="m489.387 365.578v118.003c0 10.333-8.377 18.71-18.71 18.71h22.613c10.333 0 18.71-8.377 18.71-18.71v-118.003z" fill="#da4a54"/><g><g><path d="m368.496 467.467c-1.977 0-3.955-.755-5.464-2.263-3.017-3.018-3.017-7.909 0-10.928l31.009-31.009c3.018-3.016 7.909-3.016 10.928 0 3.017 3.018 3.017 7.909 0 10.928l-31.009 31.009c-1.51 1.509-3.488 2.263-5.464 2.263z" fill="#da4a54"/></g><g><path d="m399.505 467.467c-1.977 0-3.955-.755-5.464-2.263l-31.009-31.009c-3.017-3.018-3.017-7.909 0-10.928 3.018-3.016 7.909-3.016 10.928 0l31.009 31.009c3.017 3.018 3.017 7.909 0 10.928-1.51 1.509-3.487 2.263-5.464 2.263z" fill="#da4a54"/></g></g><path d="m512 386.182h-512v-357.763c0-10.333 8.377-18.71 18.71-18.71h474.58c10.333 0 18.71 8.377 18.71 18.71z" fill="#f9f6f9"/><path d="m493.29 9.709h-22.613c10.333 0 18.71 8.377 18.71 18.71v357.763h22.613v-357.763c0-10.333-8.377-18.71-18.71-18.71z" fill="#dddaec"/><path d="m280.955 122.616h-49.91c-3.898 0-7.057-3.16-7.057-7.057v-8.595c0-17.68 14.332-32.012 32.012-32.012 17.68 0 32.012 14.332 32.012 32.012v8.595c0 3.897-3.159 7.057-7.057 7.057z" fill="#95d6a4"/><circle cx="256" cy="63.61" fill="#f1d0a5" r="25.775"/><g><g><g><path d="m96.689 168.531h-40.09c-4.268 0-7.726-3.459-7.726-7.726s3.459-7.726 7.726-7.726h40.09c4.268 0 7.726 3.459 7.726 7.726s-3.459 7.726-7.726 7.726z" fill="#524798"/></g><g><path d="m439.661 168.531h-287.333c-4.268 0-7.726-3.459-7.726-7.726s3.459-7.726 7.726-7.726h287.333c4.268 0 7.726 3.459 7.726 7.726s-3.459 7.726-7.726 7.726z" fill="#453d81"/></g></g><g><g><path d="m96.689 214.421h-40.09c-4.268 0-7.726-3.459-7.726-7.726s3.459-7.726 7.726-7.726h40.09c4.268 0 7.726 3.459 7.726 7.726s-3.459 7.726-7.726 7.726z" fill="#524798"/></g><g><path d="m439.661 214.421h-287.333c-4.268 0-7.726-3.459-7.726-7.726s3.459-7.726 7.726-7.726h287.333c4.268 0 7.726 3.459 7.726 7.726s-3.459 7.726-7.726 7.726z" fill="#453d81"/></g></g><g><g><path d="m96.689 260.311h-40.09c-4.268 0-7.726-3.459-7.726-7.726s3.459-7.726 7.726-7.726h40.09c4.268 0 7.726 3.459 7.726 7.726s-3.459 7.726-7.726 7.726z" fill="#524798"/></g><g><path d="m439.661 260.311h-287.333c-4.268 0-7.726-3.459-7.726-7.726s3.459-7.726 7.726-7.726h287.333c4.268 0 7.726 3.459 7.726 7.726s-3.459 7.726-7.726 7.726z" fill="#453d81"/></g></g><g><g><path d="m96.689 306.203h-40.09c-4.268 0-7.726-3.459-7.726-7.726 0-4.268 3.459-7.726 7.726-7.726h40.09c4.268 0 7.726 3.459 7.726 7.726s-3.459 7.726-7.726 7.726z" fill="#524798"/></g><g><path d="m439.661 306.203h-287.333c-4.268 0-7.726-3.459-7.726-7.726 0-4.268 3.459-7.726 7.726-7.726h287.333c4.268 0 7.726 3.459 7.726 7.726s-3.459 7.726-7.726 7.726z" fill="#453d81"/></g></g><g><g><path d="m96.689 352.093h-40.09c-4.268 0-7.726-3.459-7.726-7.726s3.459-7.726 7.726-7.726h40.09c4.268 0 7.726 3.459 7.726 7.726s-3.459 7.726-7.726 7.726z" fill="#524798"/></g><g><path d="m439.661 352.093h-287.333c-4.268 0-7.726-3.459-7.726-7.726s3.459-7.726 7.726-7.726h287.333c4.268 0 7.726 3.459 7.726 7.726s-3.459 7.726-7.726 7.726z" fill="#453d81"/></g></g></g></g></svg>