<svg xmlns="http://www.w3.org/2000/svg" width="32" height="32" viewBox="0 0 32 32"><g transform="translate(-58.229 -424.22)"><circle cx="74.229" cy="440.219" r="16" fill="#3a6c87"/><path fill="#fff" d="m 89.994502,962.44449 -79.994504,14.631 0,28.79661 79.994504,-14.63101 0,-28.7966 z m -20.98774,9.0306 0,2.6469 -5.03045,0.96991 0,5.16189 4.00027,-0.7727 0,2.6469 -4.00027,0.7726 0,5.4305 5.03045,-0.97528 0,2.6466 -7.94024,1.54 0,-18.53291 7.94024,-1.53441 z m -14.02835,2.7125 0,15.88071 4.79486,-0.9261 0,2.64679 -7.70465,1.49041 0,-18.53291 2.90979,-0.5589 z m -7.20597,1.3919 2.96461,17.9575 -2.9372,0.5698 -0.50415,-3.2658 -3.57283,0.6905 -0.50415,3.4577 -2.674174,0.5204 2.964594,-19.10799 4.2633,-0.82209 z m -11.419954,2.0771 c 2.17627,-0.056 3.29338,1.3509 3.29338,3.9453 l 0,0.5808 -2.75635,0.5317 0,-0.7671 c 0,-1.3237 -0.52561,-1.7247 -1.45216,-1.5454 -0.92651,0.1796 -1.45763,0.7862 -1.45763,2.1096 0,3.8121 5.69355,3.424 5.69355,8.7184 0,2.965 -1.4865,4.9436 -4.34551,5.4963 -2.85903,0.553 -4.34003,-0.8543 -4.34003,-3.8194 l 0,-1.1343 2.75634,-0.5314 0,1.3206 c 0,1.3237 0.58044,1.6862 1.50696,1.507 0.92654,-0.1796 1.50695,-0.7643 1.50695,-2.088 0,-3.8121 -5.68805,-3.4294 -5.68805,-8.7237 0,-2.9651 1.45267,-4.9377 4.28522,-5.4854 0.35407,-0.067 0.68643,-0.1066 0.99733,-0.115 z m 9.145844,1.6438 -1.40284,9.6445 2.80567,-0.5426 -1.40283,-9.1019 z m 44.50167,12.93781 -32.04056,5.91269 -9.00882,6.73471 33.01593,-6.69061 8.03345,-5.9568 z m -9.43628,7.22239 -32.93923,6.59781 0,22.396 32.93923,-6.5975 0,-22.39631 z m -1.16172,23.39871 -22.36316,4.7183 0,14.7023 22.36316,-19.4206 z" transform="translate(62.362 221.331) scale(.21948)"/></g></svg>