<svg xmlns="http://www.w3.org/2000/svg" id="Layer_1" enable-background="new 0 0 32 32" viewBox="0 0 32 32"><path fill="#8592c9" d="M32,18.1v-4.1c0-0.5-0.4-0.9-0.9-0.9h-3.8c-0.4,0-0.7-0.2-0.8-0.6c-0.2-0.5-0.4-0.9-0.6-1.4c-0.2-0.3-0.1-0.7,0.2-1l2.7-2.6c0.3-0.3,0.3-0.9,0-1.2l-2.9-2.9c-0.3-0.3-0.9-0.3-1.2,0L22,5.9c-0.3,0.3-0.7,0.3-1,0.2c-0.5-0.2-0.9-0.4-1.4-0.6c-0.4-0.1-0.6-0.5-0.6-0.8V0.9c0-0.5-0.4-0.9-0.9-0.9h-4.1c-0.5,0-0.9,0.4-0.9,0.9v3.7c0,0.4-0.2,0.7-0.6,0.8c-0.5,0.2-1,0.4-1.4,0.6c-0.3,0.2-0.7,0.1-1-0.2L7.4,3.2C7,2.9,6.5,2.9,6.1,3.2L3.2,6.2C2.9,6.5,2.9,7,3.2,7.4L5.9,10c0.3,0.3,0.3,0.7,0.2,1c-0.2,0.5-0.4,0.9-0.6,1.4c-0.1,0.4-0.5,0.6-0.8,0.6H0.9c-0.5,0-0.9,0.4-0.9,0.9v4.1c0,0.5,0.4,0.9,0.9,0.9h3.8c0.4,0,0.7,0.2,0.8,0.6C5.6,20,5.8,20.5,6,20.9c0.2,0.3,0.1,0.7-0.2,1l-2.7,2.6c-0.3,0.3-0.3,0.9,0,1.2l2.9,2.9c0.3,0.3,0.9,0.3,1.2,0l2.7-2.6c0.3-0.3,0.7-0.3,1-0.2c0.5,0.2,0.9,0.4,1.4,0.6c0.4,0.1,0.6,0.5,0.6,0.8v3.7c0,0.5,0.4,0.9,0.9,0.9h4.1c0.5,0,0.9-0.4,0.9-0.9v-3.7c0-0.4,0.2-0.7,0.6-0.8c0.5-0.2,1-0.4,1.4-0.6c0.3-0.2,0.7-0.1,1,0.2l2.7,2.6c0.3,0.3,0.9,0.3,1.2,0l2.9-2.9c0.3-0.3,0.3-0.9,0-1.2L26.1,22c-0.3-0.3-0.3-0.7-0.2-1c0.2-0.4,0.4-0.9,0.6-1.4c0.1-0.4,0.5-0.6,0.8-0.6h3.8C31.6,18.9,32,18.5,32,18.1z"/><path fill="#5b6ba1" d="M5.5 19.5C5.6 20 5.8 20.5 6 20.9c0 0 0 0 0 0 .1-.2.1-.5 0-.8-.2-.5-.4-.9-.6-1.4-.1-.4-.5-.6-.8-.6H.9c-.5 0-.9-.4-.9-.9v.7c0 .5.4.9.9.9h3.8C5 18.9 5.3 19.2 5.5 19.5zM13.1 26.6c0-.4-.2-.7-.6-.8-.5-.2-1-.4-1.4-.6-.3-.2-.7-.1-1 .2L7.4 28c-.3.3-.9.3-1.2 0l-2.9-2.9c-.1-.1-.1-.2-.2-.2-.2.3-.1.7.2 1l2.9 2.9c.3.3.9.3 1.2 0l2.7-2.6c.3-.3.7-.3 1-.2.5.2.9.4 1.4.6.4.1.6.5.6.8V26.6zM18.1 31.2h-4.1c-.5 0-.9-.4-.9-.9v.7c0 .5.4.9.9.9h4.1c.5 0 .9-.4.9-.9v-.7C18.9 30.9 18.5 31.2 18.1 31.2zM31.1 18.2h-3.8c-.4 0-.7.2-.8.6-.2.5-.4.9-.6 1.4-.1.2-.1.5 0 .8 0 0 0 0 0 0 .2-.4.4-.9.6-1.4.1-.4.5-.6.8-.6h3.8c.5 0 .9-.4.9-.9v-.7C32 17.8 31.6 18.2 31.1 18.2zM28.8 25.1L25.9 28c-.3.3-.9.3-1.2 0L22 25.4c-.3-.3-.7-.3-1-.2-.5.2-.9.4-1.4.6-.4.1-.6.5-.6.8v.7c0-.4.2-.7.6-.8.5-.2 1-.4 1.4-.6.3-.2.7-.1 1 .2l2.7 2.6c.3.3.9.3 1.2 0l2.9-2.9c.3-.3.3-.7.2-1C28.9 24.9 28.8 25 28.8 25.1z"/><ellipse cx="16" cy="16" fill="#5b6ba1" rx="6" ry="6"/></svg>