<svg xmlns="http://www.w3.org/2000/svg" width="24" height="24" viewBox="0 0 24 24"><path fill="none" d="M0,0H24V24H0Z" data-name="Path 3682"/><path fill="#525863" d="M-2043.188,16.389a9.6,9.6,0,0,1,0-13.576,9.6,9.6,0,0,1,13.576,0,9.6,9.6,0,0,1,0,13.576A9.569,9.569,0,0,1-2036.4,19.2,9.571,9.571,0,0,1-2043.188,16.389Zm1.273-12.3a7.809,7.809,0,0,0,0,11.031,7.808,7.808,0,0,0,11.031,0,7.809,7.809,0,0,0,0-11.031A7.775,7.775,0,0,0-2036.4,1.8,7.777,7.777,0,0,0-2041.915,4.085Zm6.977,8.253-2.122-2.122a.974.974,0,0,1-.285-.688V4.684a.973.973,0,0,1,.973-.973.973.973,0,0,1,.973.973V9.125l1.837,1.837a.973.973,0,0,1,0,1.376.97.97,0,0,1-.688.285A.971.971,0,0,1-2034.938,12.338Z" data-name="Path 3565" transform="translate(2048.4 2.4)"/></svg>