<svg xmlns="http://www.w3.org/2000/svg" viewBox="0 0 64 64"><g data-name="Layer 20"><path d="M62,57H61V24a1,1,0,0,0-1-1H40.89c.06-.66.11-1.33.11-2A20,20,0,1,0,15,40.08V43A10,10,0,0,0,25,53h8v1a1,1,0,0,0,1,1h3v2H36a1,1,0,0,0-1,1v4a1,1,0,0,0,1,1H62a1,1,0,0,0,1-1V58A1,1,0,0,0,62,57ZM9,34.4l2.69-2.69-1.42-1.42L7.6,33A17.89,17.89,0,0,1,3.05,22H7V20H3.05A17.89,17.89,0,0,1,7.6,9l2.69,2.69,1.42-1.42L9,7.6A17.89,17.89,0,0,1,20,3.05V7h2V3.05A17.89,17.89,0,0,1,33,7.6l-2.69,2.69,1.42,1.42L34.4,9A17.89,17.89,0,0,1,39,20H35v2h4c0,.34-.05.67-.08,1H38a1,1,0,0,0-1,1v5.24A18.35,18.35,0,0,1,34.42,33l-2.71-2.72-1.42,1.42L33,34.42A17.92,17.92,0,0,1,22,39V35H20v4a18.52,18.52,0,0,1-3-.41V32.3a11.8,11.8,0,0,0,4,.7,12,12,0,1,0-6-1.62V38A18.08,18.08,0,0,1,9,34.4ZM21,19a2,2,0,1,1-2,2A2,2,0,0,1,21,19Zm2.64,11.63a9.6,9.6,0,0,1-5.28,0L21,26Zm1.89-.72-3-5.22c.16-.07.31-.17.47-.26l4.3,4.31A10.21,10.21,0,0,1,25.53,29.91Zm3.21-2.59L24.43,23c.09-.16.19-.31.26-.47l5.22,3A10.21,10.21,0,0,1,28.74,27.32ZM31,21a9.62,9.62,0,0,1-.37,2.64L26,21l4.61-2.64A9.62,9.62,0,0,1,31,21Zm-6.31-1.55c-.07-.16-.17-.31-.26-.47l4.31-4.3a10.21,10.21,0,0,1,1.17,1.79ZM23,17.57c-.16-.09-.31-.19-.47-.26l3-5.22a10.21,10.21,0,0,1,1.79,1.17ZM21,16l-2.64-4.61a9.6,9.6,0,0,1,5.28,0Zm-4.53-3.89,3,5.22c-.16.07-.31.17-.47.26l-4.3-4.31A10.21,10.21,0,0,1,16.47,12.09Zm-3.21,2.59L17.57,19c-.09.16-.19.31-.26.47l-5.22-3A10.21,10.21,0,0,1,13.26,14.68ZM11,21a9.62,9.62,0,0,1,.37-2.64L16,21l-4.61,2.64A9.62,9.62,0,0,1,11,21Zm6.31,1.55c.07.16.17.31.26.47l-4.31,4.3a10.21,10.21,0,0,1-1.17-1.79ZM19,24.43c.16.09.31.19.47.26l-3,5.22a10.21,10.21,0,0,1-1.79-1.17ZM33,50v1H25a8,8,0,0,1-8-8V40.6a20.25,20.25,0,0,0,4,.4,19.86,19.86,0,0,0,16-8V49H34A1,1,0,0,0,33,50Zm2,3V51h2v2Zm4-28H59V57H39ZM61,61H37V59H61Z"/><path d="M49 27a8 8 0 0 0-8 8v1a1 1 0 0 0 1 1H56a1 1 0 0 0 1-1V35A8 8 0 0 0 49 27zm.41 8l-3.7-3.71-1.42 1.42L46.59 35H43a6 6 0 0 1 12 0zM46 39H42a1 1 0 0 0-1 1v4a1 1 0 0 0 1 1h4a1 1 0 0 0 1-1V40A1 1 0 0 0 46 39zm-1 4H43V41h2zM46 47H42a1 1 0 0 0-1 1v4a1 1 0 0 0 1 1h4a1 1 0 0 0 1-1V48A1 1 0 0 0 46 47zm-1 4H43V49h2z"/><polygon points="55 39 53 39 53 41 51 41 51 43 53 43 53 45 55 45 55 43 57 43 57 41 55 41 55 39"/><rect width="6" height="2" x="51" y="49"/></g></svg>