<?xml version="1.0" encoding="UTF-8"?><svg xmlns="http://www.w3.org/2000/svg" xmlns:xlink="http://www.w3.org/1999/xlink" version="1.1" id="Layer_1" x="0px" y="0px" viewBox="0 0 16 16" xml:space="preserve"><path id="Yelp_3_" d="M4.015.729C4.828.094 6.391-.087 7.034.037c.644.123.98.48.984.916L8.055 6.5c.003.436-.225.836-.507.89-.283.053-.7-.206-.93-.577L3.685 2.056c-.227-.371-.685-.535.33-1.327zm-.974 10.55l2.953-1.037c.411-.145.78-.548.821-.898.04-.35-.259-.766-.665-.925L3.031 7.192c-.406-.16-.875.218-.998.836 0 0-.074 2.153 0 2.598.075.446.596.799 1.008.653zm5.151.519c.008-.437-.226-.814-.522-.841-.296-.027-.766.223-1.047.556l-2.06 2.452c-.28.333-.141 1.115.268 1.264l2.154.742c.41.148 1.132-.29 1.14-.726l.067-3.447zm5.119-.571l-2.583-.737c-.419-.12-.894-.108-1.055.027-.161.133-.121.556.09.938l1.63 2.961c.21.381 1.054.316 1.286-.054 0 0 .982-1.438 1.163-1.978.181-.541-.112-1.038-.531-1.157zm.629-4.164c-.116-.375-.924-1.479-1.361-1.855-.437-.377-.937-.33-1.218.001L9.696 7.178c-.282.331-.358.857-.17 1.165.188.309.689.484 1.115.389l2.879-.53c.52-.124.539-.764.42-1.139z" fill="#F44336"/><metadata><rdf:RDF xmlns:rdf="http://www.w3.org/1999/02/22-rdf-syntax-ns#" xmlns:rdfs="http://www.w3.org/2000/01/rdf-schema#" xmlns:dc="http://purl.org/dc/elements/1.1/"><rdf:Description about="https://iconscout.com/legal#licenses" dc:title="yelp,logo,color,e" dc:description="yelp,logo,color,e" dc:publisher="Iconscout" dc:date="2018-02-17" dc:format="image/svg+xml" dc:language="en"><dc:creator><rdf:Bag><rdf:li>Pixel Icons</rdf:li></rdf:Bag></dc:creator></rdf:Description></rdf:RDF></metadata></svg>