<svg xmlns="http://www.w3.org/2000/svg" width="48" height="48" viewBox="0 0 48 48"><g transform="translate(0 -1004.362)"><g transform="matrix(1.92 0 0 1.92 -47.127 973.817)"><circle cx="37.045" cy="28.409" r="12.5" fill="#50b748" fill-rule="evenodd"/></g><path fill="#fff" style="line-height:normal;text-indent:0;text-align:start;text-decoration-line:none;text-decoration-style:solid;text-decoration-color:#000;text-transform:none;block-progression:tb;isolation:auto;mix-blend-mode:normal" d="m 33.402344,1018.904 a 0.50004997,0.50004997 0 0 0 -0.134766,0.018 l -4.771484,1.2832 a 0.50054473,0.50054473 0 1 0 0.259765,0.9668 l 3.605469,-0.9707 -3.259766,5.6426 c -1.818635,-0.769 -3.961687,-0.1321 -4.957031,1.5918 -1.079335,1.8695 -0.392688,4.2837 1.507813,5.3809 1.900501,1.0973 4.336689,0.4867 5.416015,-1.3828 0.995049,-1.7234 0.472808,-3.8971 -1.101562,-5.0879 l 3.259765,-5.6446 0.960938,3.6055 a 0.50029078,0.50029078 0 1 0 0.966797,-0.2578 l -1.273438,-4.7734 a 0.50004997,0.50004997 0 0 0 -0.478515,-0.3711 z m -15.40625,3.457 c -2.194538,0 -3.996141,1.7495 -3.996094,3.9082 1.6e-5,1.9906 1.536798,3.612 3.496094,3.8555 l 0,4.2363 -1.976563,0 a 0.50005,0.50005 0 1 0 0,1 l 1.976563,0 0,2.4941 a 0.50004997,0.50004997 0 1 0 1,0 l 0,-2.4941 1.972656,0 a 0.50005,0.50005 0 1 0 0,-1 l -1.972656,0 0,-4.2363 c 1.959554,-0.2435 3.49803,-1.8649 3.498047,-3.8555 4.7e-5,-2.1587 -1.803509,-3.9082 -3.998047,-3.9082 z m 0,1 c 1.668088,0 2.998082,1.3043 2.998047,2.9082 -1.3e-5,1.6039 -1.329994,2.9062 -2.998047,2.9062 -1.668053,0 -2.996081,-1.3023 -2.996094,-2.9062 -3.5e-5,-1.6039 1.328006,-2.9082 2.996094,-2.9082 z m 9.357422,3.1465 c 0.570534,-0.033 1.163356,0.097 1.705078,0.4101 1.444582,0.834 1.944516,2.6267 1.142578,4.0157 -0.801922,1.389 -2.604246,1.8515 -4.048828,1.0175 -1.444591,-0.8341 -1.944508,-2.6266 -1.142578,-4.0156 0.501206,-0.8681 1.392859,-1.3734 2.34375,-1.4277 z" color="#000" font-family="sans-serif" font-weight="400" overflow="visible" white-space="normal"/></g></svg>