<?xml version="1.0" encoding="utf-8"?>
<!-- Generator: Adobe Illustrator 25.2.0, SVG Export Plug-In . SVG Version: 6.00 Build 0)  -->
<svg version="1.1" id="Layer_1" xmlns="http://www.w3.org/2000/svg" xmlns:xlink="http://www.w3.org/1999/xlink" x="0px" y="0px"
	 viewBox="0 0 612 792" style="enable-background:new 0 0 612 792;" xml:space="preserve">
<style type="text/css">
	.st0{fill:#606161;}
	.st1{fill:#0B111C;}
	.st2{fill:#D22027;}
	.st3{font-family:'BerlinSansFBDemi-Bold';}
	.st4{font-size:27.2321px;}
</style>
<g>
	<path class="st0" d="M343.91,459.41l14.43-19.5l3.8-5.13l59.34-80.14c19.64,6.69,41.86,0.65,54.55-16.51
		c9.68-13.07,11.54-29.55,6.54-44.1l-32.69,44.18l-45.8-33.92l32.69-44.16c-15.4-0.56-30.62,6.05-40.29,19.12
		c-12.69,17.14-11.97,40.18,0.17,57.02l-34.51,46.6l-1.04,1.41l-17.19,23.22V459.41z"/>
	<path class="st1" d="M335.64,233.86H193.17c-14.64,0-26.52,11.88-26.52,26.51v294.7c0,14.64,11.88,26.51,26.52,26.51h142.47
		c14.63,0,26.51-11.86,26.51-26.51v-294.7C362.14,245.74,350.27,233.86,335.64,233.86z M316.06,244.7c2.51,0,4.54,2.03,4.54,4.54
		c0,2.51-2.03,4.54-4.54,4.54c-2.5,0-4.54-2.03-4.54-4.54C311.52,246.72,313.57,244.7,316.06,244.7z M298.8,245.66
		c2.01,0,3.65,1.63,3.65,3.65c0,2.03-1.63,3.66-3.65,3.66c-2.01,0-3.65-1.63-3.65-3.66C295.15,247.3,296.79,245.66,298.8,245.66z
		 M202.44,246.16h62.26v6.31h-62.26V246.16z M295.23,567.14c0,4.75-3.86,8.59-8.61,8.59h-44.45c-4.75,0-8.59-3.84-8.59-8.59v-2.01
		c0-4.75,3.84-8.61,8.59-8.61h44.45c4.75,0,8.61,3.86,8.61,8.61V567.14z M343.91,552.63H184.89V262.8h159.02V552.63z"/>
	<path class="st2" d="M494.07,428.44c0-6.17,6.63-11.23,15.02-11.65c-0.97-4.89-2.54-9.71-4.81-14.37
		c-0.97-2.01-2.04-3.92-3.19-5.75c-6.23,5.89-14.33,7.2-18.52,2.83c-4.19-4.37-2.94-12.81,2.71-19.29
		c-5.89-4.04-12.45-6.85-19.32-8.34c-0.41,8.74-5.25,15.64-11.17,15.64c-5.93,0-10.77-6.91-11.18-15.66
		c-4.69,1.01-9.33,2.66-13.81,5.01c-1.92,1.01-3.75,2.13-5.51,3.34c5.64,6.48,6.9,14.92,2.71,19.29
		c-4.19,4.37-12.28,3.06-18.52-2.83c-3.87,6.14-6.57,12.98-7.99,20.12c8.38,0.44,15.01,5.48,15.01,11.65
		c0,6.17-6.63,11.23-15.02,11.65c0.97,4.89,2.56,9.71,4.81,14.37c0.97,2,2.04,3.92,3.19,5.73c6.23-5.87,14.33-7.19,18.52-2.81
		c4.19,4.36,2.94,12.81-2.71,19.29c5.89,4.04,12.45,6.85,19.32,8.34c0.41-8.74,5.25-15.64,11.18-15.64
		c5.92,0,10.76,6.91,11.18,15.66c4.67-1.01,9.32-2.66,13.8-5.01c1.92-1.01,3.75-2.13,5.51-3.34c-5.64-6.48-6.9-14.93-2.71-19.29
		c4.19-4.37,12.28-3.06,18.52,2.83c3.87-6.14,6.57-12.98,7.99-20.12C500.7,439.65,494.07,434.61,494.07,428.44z M454.79,459.39
		c-16.41,0-29.71-13.86-29.71-30.95s13.3-30.95,29.71-30.95c16.4,0,29.7,13.86,29.7,30.95S471.19,459.39,454.79,459.39z"/>
	<path class="st2" d="M424.05,221.19c0-3.56,3.98-6.46,9.02-6.7c-0.57-2.81-1.53-5.6-2.89-8.29c-0.57-1.15-1.23-2.25-1.92-3.3
		c-3.72,3.37-8.59,4.13-11.1,1.62c-2.51-2.51-1.76-7.38,1.62-11.12c-3.53-2.31-7.46-3.93-11.59-4.8c-0.24,5.04-3.15,9.02-6.7,9.02
		s-6.46-3.98-6.72-9.02c-2.8,0.57-5.58,1.53-8.28,2.89c-1.15,0.57-2.25,1.23-3.3,1.92c3.37,3.72,4.13,8.59,1.62,11.1
		c-2.51,2.51-7.38,1.76-11.12-1.62c-2.31,3.52-3.93,7.46-4.8,11.59c5.04,0.24,9.02,3.15,9.02,6.7c0,3.56-3.98,6.46-9.02,6.72
		c0.57,2.8,1.53,5.58,2.89,8.28c0.57,1.15,1.23,2.25,1.91,3.3c3.74-3.37,8.61-4.13,11.12-1.62c2.51,2.51,1.76,7.38-1.62,11.12
		c3.52,2.31,7.46,3.93,11.59,4.8c0.24-5.04,3.15-9.02,6.7-9.02s6.46,3.98,6.7,9.02c2.81-0.57,5.6-1.53,8.29-2.89
		c1.15-0.57,2.25-1.23,3.3-1.91c-3.37-3.74-4.13-8.61-1.62-11.12c2.51-2.51,7.38-1.76,11.12,1.62c2.31-3.53,3.93-7.46,4.8-11.59
		C428.03,227.65,424.05,224.74,424.05,221.19z M400.48,239.02c-9.85,0-17.84-7.99-17.84-17.84c0-9.85,7.99-17.82,17.84-17.82
		s17.82,7.97,17.82,17.82C418.3,231.03,410.33,239.02,400.48,239.02z"/>
	<path class="st2" d="M474.42,242.82c0-2.16,2.42-3.93,5.49-4.08c-0.35-1.71-0.92-3.4-1.75-5.04c-0.35-0.71-0.74-1.38-1.16-2.03
		c-2.28,2.07-5.25,2.53-6.78,1c-1.53-1.53-1.07-4.49,1-6.78c-2.16-1.41-4.55-2.39-7.07-2.92c-0.15,3.07-1.92,5.49-4.08,5.49
		s-3.93-2.42-4.08-5.49c-1.71,0.35-3.4,0.94-5.05,1.76c-0.7,0.36-1.36,0.76-2.01,1.16c2.07,2.28,2.53,5.25,1,6.78
		c-1.53,1.53-4.49,1.07-6.78-1c-1.41,2.16-2.41,4.55-2.92,7.07c3.07,0.15,5.49,1.92,5.49,4.08c0,2.16-2.42,3.93-5.49,4.08
		c0.35,1.72,0.92,3.42,1.75,5.05c0.35,0.7,0.74,1.36,1.16,2.01c2.28-2.06,5.25-2.53,6.78-1c1.53,1.54,1.07,4.51-1,6.78
		c2.16,1.41,4.55,2.41,7.07,2.92c0.15-3.07,1.92-5.49,4.08-5.49s3.93,2.44,4.08,5.49c1.71-0.35,3.4-0.92,5.05-1.75
		c0.7-0.35,1.36-0.74,2.01-1.16c-2.07-2.27-2.53-5.23-1-6.78c1.53-1.53,4.49-1.06,6.78,1c1.41-2.15,2.41-4.55,2.92-7.07
		C476.84,246.75,474.42,244.98,474.42,242.82z M460.06,253.68c-6.01,0-10.86-4.86-10.86-10.86c0-5.99,4.86-10.86,10.86-10.86
		s10.86,4.87,10.86,10.86C470.92,248.83,466.07,253.68,460.06,253.68z"/>
	<g>
		<text transform="matrix(1 0 0 1 187.4953 332.1144)" class="st3 st4">MOBILE</text>
	</g>
	<text transform="matrix(1 0 0 1 199.0495 356.3127)" class="st3 st4">MECHANIC</text>
</g>
</svg>
