<svg xmlns="http://www.w3.org/2000/svg" width="32" height="32" viewBox="0 0 32 32"><g transform="translate(0 -1020.362)"><circle cx="16" cy="1036.362" r="16" fill="#3a6c87"/><path fill="#2f536e" d="M 16.361328 31.986328 A 16 16 0 0 0 17.130859 31.958984 A 16 16 0 0 0 18.71875 31.767578 A 16 16 0 0 0 20.279297 31.416016 A 16 16 0 0 0 21.796875 30.912109 A 16 16 0 0 0 23.257812 30.259766 A 16 16 0 0 0 24.644531 29.462891 A 16 16 0 0 0 25.945312 28.533203 A 16 16 0 0 0 27.146484 27.478516 A 16 16 0 0 0 28.238281 26.306641 A 16 16 0 0 0 29.205078 25.035156 A 16 16 0 0 0 30.041016 23.669922 A 16 16 0 0 0 30.736328 22.230469 A 16 16 0 0 0 31.285156 20.728516 A 16 16 0 0 0 31.681641 19.177734 A 16 16 0 0 0 31.919922 17.597656 A 16 16 0 0 0 32 16 A 16 16 0 0 0 31.990234 15.753906 L 22.951172 6.7148438 L 15.023438 8.1875 L 15.023438 9.2070312 L 14.796875 8.9804688 L 9.3320312 8.9804688 C 9.1705695 8.9804688 9.0488281 9.1003187 9.0488281 9.2617188 L 9.0488281 24.552734 C 9.0488281 24.633434 9.0782882 24.703281 9.1289062 24.753906 L 9.1308594 24.755859 L 16.361328 31.986328 z " transform="translate(0 1020.362)"/><path fill="#fff" d="m 22.951451,1027.0765 -7.928335,1.4724 0,2.8315 7.928335,-1.444 0,-2.8599 z m -2.06703,0.9061 0,0.2548 -0.481364,0.086 0,0.5379 0.396417,-0.085 0,0.2548 -0.396417,0.056 0,0.5663 0.481364,-0.1132 0,0.2548 -0.764518,0.1698 0,-1.8404 0.764518,-0.1416 z m -1.387459,0.2548 0,1.5857 0.481364,-0.086 0,0.2265 -0.764519,0.1699 0,-1.8405 0.283155,-0.056 z m -0.707886,0.1416 0.283154,1.7839 -0.283154,0.056 -0.05663,-0.3398 -0.368102,0.086 -0.02831,0.3398 -0.283156,0.056 0.31147,-1.8972 0.424733,-0.085 z m -1.132621,0.1982 c 0.229497,0 0.311472,0.1461 0.311472,0.3965 l 0,0.056 -0.25484,0.056 0,-0.056 c 0,-0.1461 -0.05813,-0.1908 -0.141577,-0.1699 -0.10432,0.021 -0.169894,0.072 -0.169894,0.1981 0,0.3756 0.566311,0.3563 0.566311,0.8779 0,0.2921 -0.132642,0.4753 -0.424733,0.5379 -0.271234,0.062 -0.424732,-0.076 -0.424732,-0.368 l 0,-0.1417 0.283154,-0.028 0,0.1132 c 0,0.1251 0.05813,0.1908 0.141578,0.1699 0.08346,-0.021 0.141577,-0.081 0.141577,-0.2265 0,-0.3756 -0.566309,-0.3278 -0.566309,-0.8495 0,-0.2922 0.153498,-0.4964 0.424732,-0.5381 0.04172,0 0.0924,-0.028 0.113261,-0.028 z m 0.906096,0.1699 -0.141578,0.9628 0.25484,-0.056 -0.113262,-0.9061 z m -9.230847,0.5946 c -0.1614618,0 -0.2831549,0.1217 -0.2831549,0.2831 l 0,15.2905 c 0,0.1614 0.1216931,0.2831 0.2831549,0.2831 l 12.119027,0 c 0.161464,0 0.283154,-0.1217 0.283154,-0.2831 l 0,-11.4678 -1.274197,1.1042 0,8.5231 -10.136942,0 0,-12.4588 4.473847,0 0,-1.2743 -5.464889,0 z m 13.619747,0.708 -3.171334,0.5663 -0.87778,0.6795 3.25628,-0.6795 0.792834,-0.5663 z m -0.934411,0.7078 -3.25628,0.6513 0,2.2086 3.25628,-0.6513 0,-2.2086 z m -0.08495,2.2936 -2.208608,0.4813 0,1.4442 2.208608,-1.9255 z m -6.540877,10.5333 c 0.301037,0 0.537999,0.237 0.537995,0.538 4e-6,0.3011 -0.236958,0.5663 -0.537995,0.5663 -0.301036,0 -0.537995,-0.2652 -0.537993,-0.5663 -2e-6,-0.301 0.236957,-0.538 0.537993,-0.538 z"/></g></svg>